#!OML:ASF F:\VICON\USERDATA\INSTALL\rory3\rory3.ASF
:FULLY-SPECIFIED
:DEGREES
130
root -0.2637373910864972 18.10007797827878 47.0223183603984 2.018939050377447 3.091337689321276 -0.7765904601391493
lfemur -33.263695941437604 -2.6990418379102357 -21.487298652896094
ltibia -5.782976048136376
lfoot 12.49079404905954 -14.099799122020585
ltoes -31.401098061134128
rfemur 5.31958395749724 2.932612878311067 32.18068852052593
rtibia -1.6138102362097726
rfoot 34.053505669311605 -3.4396909606672534
rtoes 2.7961509051077034
lowerback 1.0 -0.49879168519464534 0.19529782445677757
upperback -2.8039622604088383 1.0231897887416852 0.7975023025878617
thorax -6.120902360872675 0.47987986662732945 0.7790754555365251
lowerneck -15.63502873986164 -4.799154056885019 -2.491329060893412
upperneck 19.108177520984597 -5.170790441677874 1.1003215493927936
head 9.010564226858012 -3.087053831855675 0.13251037213978412
lclavicle 2.32038146856974e-14 2.5369789046136764e-14
lhumerus -67.71365239564489 -6.049914418246591 94.42304999573587
lradius 120.60837198563416
lwrist 52.54699054262695
lhand -36.488516701351024 3.8690523609257426
lfingers nan
lthumb -9.806170005302503 33.73770324665864
rclavicle 2.491964239191338e-14 2.7538719646060767e-14
rhumerus -56.52059292009224 8.030628147288422 -93.38573422532771
rradius 134.25585768623833
rwrist -8.04603545881167
rhand -21.46015690714913 1.0
rfingers nan
rthumb 4.595872817856703 11.900054943868737
131
root -0.25985753898585234 18.09714655165462 47.96803888639782 2.006519326885887 2.9901236884977043 -0.8121696936182308
lfemur -32.36348054322716 -2.4395856975157635 -21.908757629791157
ltibia -8.990598768916989
lfoot 12.487817504974673 -14.387545677165553
ltoes -31.375868914808564
rfemur 5.118097051471647 3.532112095563454 32.49935500293455
rtibia 1.5229637659469617
rfoot 32.08909449063181 -3.5670752840586935
rtoes 2.0376245251012124
lowerback 1.0 -0.5360435451981758 0.11201567169725801
upperback -2.7707514135341706 1.067044396457987 0.770010791151387
thorax -6.20887364448404 0.45211014309099534 0.7849347830453897
lowerneck -16.330851224226276 -4.90333195186331 -2.5391177222305594
upperneck 19.126572801811026 -5.091330596739647 1.0715660432261422
head 9.124754689052166 -3.048738545061103 0.15249459296679518
lclavicle 9.581901862744204e-15 -2.102614037160711e-14
lhumerus -67.80037529964697 -5.508324863126775 94.07923992182214
lradius 121.35281754377498
lwrist 51.209016376740976
lhand -36.21104151451746 2.7188535653656425
lfingers nan
lthumb -9.515392401349935 32.625108423555176
rclavicle 1.0497836842800823e-14 -1.914898300289886e-14
rhumerus -56.84133559851443 8.205399246367103 -93.58912027712908
rradius 133.489746262992
rwrist -9.995821286723494
rhand -21.56452876515577 1.0
rfingers nan
rthumb 4.497779882421403 11.327528235460157
132
root -0.2511880670881726 18.080306967188157 48.315041823363295 1.814409432474485 3.0396558181702646 -0.6729656671352191
lfemur -31.18960741296231 -2.0501746141429904 -22.593964274703737
ltibia -11.58728159146657
lfoot 12.960710389433842 -14.702993261303728
ltoes -31.519360341945017
rfemur 4.837703943549798 3.818450345556549 32.61092448623081
rtibia 4.895946191116728
rfoot 30.44559228869288 -3.5079887086182215
rtoes 1.6614893127051507
lowerback 1.0 -0.6218084035772045 -0.04024481770567423
upperback -2.561629852148359 1.0356934501930835 0.7165919540759143
thorax -6.136543136965554 0.40465099009369004 0.8323023695757528
lowerneck -16.931963696593034 -4.873499225275944 -2.422212878514472
upperneck 18.68411527068663 -4.880919421251507 0.9517191473316493
head 9.040673986548963 -2.9398856787496284 0.1341328371217676
lclavicle 1.8170668764124675e-14 3.5742674190832135e-15
lhumerus -67.48158238760155 -5.137737530529448 93.79033079866815
lradius 121.81682103335714
lwrist 49.95606885882896
lhand -35.71369697958538 2.1699340815054136
lfingers nan
lthumb -9.04413859770511 32.06659830335277
rclavicle 1.958494442632965e-14 5.871362366083582e-15
rhumerus -57.10748893172939 8.24845453938205 -93.54072324115009
rradius 132.65923335644803
rwrist -11.354457611948112
rhand -21.195349016734262 1.0
rfingers nan
rthumb 4.831039469560972 10.835953615314516
133
root -0.2513054807165743 18.041047495818393 48.20138293911841 1.6236376121773328 2.8914181228303253 -0.5992407167512324
lfemur -30.11335892815262 -1.4382322745936647 -23.30774873828006
ltibia -13.257274214648895
lfoot 13.817866117909865 -15.35952431864673
ltoes -31.701071656018847
rfemur 4.41856169543637 4.244878517755851 32.705721022851534
rtibia 8.413122043870217
rfoot 29.72878672360385 -3.6180925002255284
rtoes 3.1972357356282184
lowerback 1.0 -0.6579042877836234 -0.24368257121124048
upperback -2.368336870949591 1.0649292432294186 0.6973660947257206
thorax -6.067203567678156 0.39636066763691835 0.9341863592837889
lowerneck -17.614082860194316 -4.822874136390972 -2.300925666042474
upperneck 18.60045411577475 -4.684963733197344 0.8173169810872272
head 9.080998933239622 -2.847838309643637 0.09951919583572066
lclavicle -5.6249241022454753e-14 -3.5061174412989725e-14
lhumerus -67.13443229964642 -4.769212282513799 93.5860737144459
lradius 122.32955107039858
lwrist 48.64720211354087
lhand -34.71380929018311 0.7135947859079473
lfingers nan
lthumb -8.00952925045458 30.66634829737992
rclavicle -5.4431509768621967e-14 -3.298651364975692e-14
rhumerus -57.569106000278936 8.199617594841241 -93.59076910975232
rradius 131.8957908742707
rwrist -11.911823530529967
rhand -20.608133057473427 1.0
rfingers nan
rthumb 5.349537368429594 11.020641174737657
134
root -0.26065357771856157 18.00451939860497 48.2851177329619 1.553019314784311 2.7601146022053067 -0.8498040940013964
lfemur -29.4513565501728 -0.8987694816148529 -23.63785117353889
ltibia -14.103468064680506
lfoot 15.5803307082216 -15.89417517049587
ltoes -31.290377999739135
rfemur 3.843718745859743 4.7665916138027695 33.21409150273584
rtibia 12.134682638394558
rfoot 29.01075763248253 -4.055662393810852
rtoes 3.9563067063244963
lowerback 1.0 -0.6843586706433562 -0.08679263178870311
upperback -2.2415984687924815 1.096398909222482 0.7504030466477
thorax -5.864686406075708 0.38171746273167384 0.9288577723320723
lowerneck -18.29624804078762 -4.824864434679865 -2.122045131709764
upperneck 18.506692733297548 -4.539561553686177 0.6076455846518383
head 9.088864166947873 -2.784941028636488 0.020293089798039232
lclavicle 1.642102363353164e-14 2.1771520144334433e-14
lhumerus -66.8403313802059 -4.361614454471402 93.474870857994
lradius 123.06201855634322
lwrist 47.29163153425384
lhand -33.68932070452014 -2.1788824315540065
lfingers nan
lthumb -7.036223205078716 27.76810040103188
rclavicle 1.8214747868017385e-14 2.399317713641154e-14
rhumerus -58.00607392263575 8.046486394951486 -93.488624928893
rradius 131.06066240555012
rwrist -12.236163131064057
rhand -20.266547915137895 1.0
rfingers nan
rthumb 5.671333747159158 10.997522339595104
135
root -0.2708370176609505 17.97763530303701 48.0351007616074 1.4384953786820955 2.9069026163046465 -0.8413465124357262
lfemur -28.525031824395345 -0.4779503342154515 -24.175206636455076
ltibia -14.179069940571814
lfoot 16.66036374385973 -16.020592921554353
ltoes -30.389712549795966
rfemur 3.0823707212084734 4.826310393740858 33.357755620477064
rtibia 16.00842321408563
rfoot 28.207390336936818 -3.5105279646479923
rtoes -0.15866480837418928
lowerback 1.0 -0.7684944252955239 -0.19016990056106575
upperback -2.1583679128396844 1.0228503571077399 0.7488365102999801
thorax -6.094005417163383 0.33176980981197557 1.0105933288075748
lowerneck -18.41846788400052 -4.833858833113892 -2.100850580146688
upperneck 18.108420498148952 -4.38381014408602 0.6995494982755059
head 8.910784957163248 -2.716817528025478 0.07648215259879743
lclavicle -3.177642602311606e-14 -2.446198577796989e-14
lhumerus -66.48400140495315 -3.955619483104071 93.38783617857302
lradius 123.84064111270237
lwrist 46.39895599587339
lhand -32.7392806914381 -3.7711085914134745
lfingers nan
lthumb -6.096870721438767 26.19428482049368
rclavicle -3.000780542877635e-14 -2.240558519587144e-14
rhumerus -58.36646573819394 7.867980022594885 -93.3881054995313
rradius 129.96068954430126
rwrist -11.762828990864218
rhand -20.411656162011155 1.0
rfingers nan
rthumb 5.549574085639919 11.416273536103308
